<svg width="68" height="68" viewBox="0 0 68 68" fill="none" xmlns="http://www.w3.org/2000/svg">
<path d="M49.3645 17.6159C49.6201 17.6143 49.6201 17.6143 49.8809 17.6125C50.3421 17.6096 50.8032 17.61 51.2644 17.6111C51.6509 17.6118 52.0374 17.6108 52.4239 17.6099C53.3352 17.6077 54.2465 17.6081 55.1578 17.6103C56.0964 17.6125 57.0349 17.6104 57.9735 17.6062C58.7824 17.6027 59.5912 17.6018 60.4001 17.6029C60.882 17.6035 61.3638 17.6032 61.8457 17.6006C62.3816 17.5977 62.9173 17.6002 63.4532 17.6032C63.6916 17.6009 63.6916 17.6009 63.9348 17.5985C65.1296 17.6121 65.1296 17.6121 65.5359 17.9998C65.84 18.4524 65.8509 18.7085 65.8218 19.2374C65.7379 19.6549 65.5467 19.8872 65.241 20.1749C64.9121 20.3394 64.6878 20.323 64.3197 20.324C64.1103 20.3251 64.1103 20.3251 63.8968 20.3262C63.743 20.3263 63.5892 20.3265 63.4307 20.3266C63.1885 20.3276 63.1885 20.3276 62.9413 20.3286C62.5895 20.33 62.2376 20.3312 61.8858 20.3321C61.3285 20.3335 60.7712 20.3361 60.2139 20.339C58.629 20.3471 57.044 20.3542 55.459 20.3585C54.5841 20.3609 53.7091 20.3647 52.8342 20.3701C52.3715 20.3728 51.9089 20.3748 51.4462 20.3751C50.9288 20.3755 50.4115 20.3788 49.8941 20.3824C49.7424 20.382 49.5907 20.3816 49.4345 20.3812C47.7151 20.3987 46.6397 20.8273 45.4216 22.0469C45.0943 22.3927 44.7748 22.7444 44.4564 23.0984C44.2052 23.3742 43.9532 23.6492 43.7013 23.9244C43.6356 23.9963 43.5699 24.0683 43.5022 24.1424C42.1076 25.6679 40.6833 27.166 39.2527 28.6576C39.1744 28.7392 39.0961 28.8209 39.0154 28.905C34.201 33.9172 30.0068 37.9279 22.6913 38.1734C21.6721 38.2291 20.9541 38.6102 20.2583 39.3463C19.9053 39.7977 19.685 40.2785 19.4953 40.8166C19.4594 40.9133 19.4235 41.0099 19.3865 41.1096C19.3037 41.3335 19.2219 41.5577 19.1409 41.7823C18.9697 42.2565 18.7958 42.7297 18.6218 43.2028C18.4245 43.7393 18.2275 44.2759 18.0322 44.8131C17.9863 44.9391 17.9863 44.9391 17.9394 45.0676C17.8553 45.2987 17.7714 45.5299 17.6874 45.761C17.5548 46.1141 17.5548 46.1141 17.4238 46.3761C18.524 46.3742 19.6242 46.3687 20.7244 46.3588C21.2354 46.3544 21.7464 46.3511 22.2575 46.3505C22.7519 46.35 23.2462 46.3462 23.7406 46.3403C23.9279 46.3386 24.1153 46.3381 24.3027 46.3387C25.3955 46.3414 26.2982 46.2345 27.2959 45.7533C29.4622 44.7325 32.3671 44.9801 34.5856 45.7211C34.7668 45.8098 34.9477 45.8993 35.1282 45.9895C35.77 46.2761 36.3153 46.3183 37.0111 46.3096C37.1309 46.3102 37.2508 46.3108 37.3743 46.3115C37.7728 46.3129 38.1713 46.3106 38.5699 46.3083C38.8568 46.3086 39.1437 46.3092 39.4307 46.3099C40.047 46.311 40.6633 46.3105 41.2796 46.3088C42.254 46.3061 43.2283 46.3074 44.2026 46.3093C46.2699 46.3128 48.3372 46.312 50.4046 46.3106C51.1072 46.3102 51.8099 46.3098 52.5126 46.3094C52.6425 46.3094 52.6425 46.3094 52.775 46.3093C54.2185 46.3086 55.6621 46.3101 57.1057 46.3129C58.0746 46.3147 59.0434 46.3139 60.0123 46.3112C60.6142 46.31 61.2161 46.311 61.818 46.3125C62.0974 46.3128 62.3769 46.3122 62.6563 46.3106C63.0373 46.3086 63.4181 46.3097 63.799 46.3117C63.91 46.3103 64.021 46.3089 64.1353 46.3075C64.6613 46.3136 64.9172 46.3369 65.372 46.6258C65.81 47.0845 65.8083 47.4323 65.8034 48.0449C65.7471 48.4793 65.5542 48.7015 65.241 48.9963C64.8369 49.1983 64.4112 49.1474 63.9677 49.148C63.8621 49.1486 63.7565 49.1493 63.6476 49.15C63.2918 49.152 62.936 49.1531 62.5801 49.1542C62.3258 49.1554 62.0715 49.1567 61.8172 49.1581C61.1251 49.1616 60.4331 49.1644 59.741 49.167C59.0183 49.1699 58.2957 49.1735 57.5731 49.177C56.2039 49.1835 54.8348 49.1894 53.4656 49.1951C51.9072 49.2015 50.3487 49.2087 48.7903 49.216C45.5838 49.2309 42.3773 49.2449 39.1708 49.2583C39.2662 49.4056 39.2662 49.4056 39.3635 49.5559C39.4466 49.6852 39.5297 49.8144 39.6153 49.9475C39.6979 50.0755 39.7804 50.2034 39.8654 50.3352C40.1278 50.7648 40.2968 51.156 40.4563 51.6328C40.5058 51.7763 40.5552 51.9198 40.6062 52.0677C40.7124 52.4296 40.802 52.7843 40.8824 53.1521C40.9055 53.2573 40.9286 53.3625 40.9524 53.4709C40.9784 53.5905 40.9784 53.5905 41.0049 53.7125C41.127 53.7127 41.2492 53.7129 41.375 53.7131C44.3468 53.7179 47.3186 53.7256 50.2904 53.7366C51.7275 53.7418 53.1647 53.746 54.6018 53.748C55.8544 53.7497 57.1069 53.7532 58.3594 53.7589C59.0227 53.7619 59.6859 53.764 60.3492 53.7638C60.9735 53.7637 61.5978 53.7661 62.2221 53.7703C62.4512 53.7714 62.6803 53.7716 62.9094 53.7709C63.2224 53.77 63.5353 53.7724 63.8483 53.7755C63.984 53.774 63.984 53.774 64.1225 53.7724C64.7671 53.7838 65.1368 53.9651 65.634 54.3675C65.8777 54.8548 65.8401 55.409 65.765 55.9396C65.4173 56.4129 65.1567 56.6285 64.586 56.7256C64.2653 56.7391 63.9483 56.7459 63.6277 56.7463C63.531 56.747 63.4342 56.7476 63.3345 56.7483C63.0103 56.7503 62.6861 56.7514 62.3618 56.7525C62.1294 56.7538 61.897 56.7551 61.6646 56.7564C61.0334 56.76 60.4023 56.7627 59.7711 56.7654C59.1116 56.7682 58.4521 56.7718 57.7926 56.7753C56.5436 56.7819 55.2946 56.7877 54.0456 56.7934C52.6237 56.7999 51.2018 56.8071 49.78 56.8143C46.8549 56.8292 43.9299 56.8432 41.0049 56.8566C40.9696 56.9921 40.9343 57.1275 40.898 57.2671C40.8509 57.4463 40.8037 57.6255 40.7566 57.8047C40.7334 57.8938 40.7103 57.9829 40.6864 58.0747C40.3129 59.4895 39.6274 60.7465 38.6468 61.8349C38.5417 61.9521 38.4367 62.0693 38.3285 62.19C36.4615 64.1652 33.9564 65.339 31.2333 65.425C29.8747 65.4415 28.668 65.2754 27.3802 64.848C27.2436 64.8036 27.107 64.7592 26.9662 64.7134C24.2881 63.7219 22.4467 61.563 21.2608 59.0387C21.0097 58.3265 20.858 57.5941 20.6989 56.8566C20.5616 56.854 20.4242 56.8514 20.2826 56.8488C19.7689 56.8387 19.2552 56.8271 18.7415 56.815C18.52 56.8101 18.2984 56.8055 18.0768 56.8014C17.7567 56.7953 17.4368 56.7877 17.1167 56.7799C17.019 56.7784 16.9212 56.7768 16.8205 56.7753C15.7058 56.7445 14.655 56.5128 13.8042 55.7477C12.5153 54.3748 11.8457 51.6725 11.8397 49.8232C11.8865 48.8404 12.0005 47.9921 12.7245 47.2814C13.0929 46.9846 13.4464 46.7088 13.8885 46.5335C14.2326 46.3254 14.2802 46.1514 14.41 45.7742C14.4764 45.5864 14.4764 45.5864 14.544 45.3948C14.59 45.2586 14.636 45.1225 14.6834 44.9822C14.7328 44.8415 14.7823 44.7008 14.8332 44.5559C14.9917 44.1043 15.1476 43.6519 15.3031 43.1992C17.4426 37.0054 17.4426 37.0054 20.1749 35.6337C21.2655 35.1929 22.342 34.9552 23.5057 34.8066C29.6777 34.0031 32.8774 31.1285 36.8673 26.5179C37.385 25.9202 37.9075 25.3627 38.5159 24.8552C39.0641 24.382 39.5598 23.8518 40.0663 23.335C40.2504 23.1487 40.4345 22.9624 40.6187 22.7762C41.0677 22.3223 41.5161 21.8677 41.963 21.4116C42.2152 21.1542 42.4682 20.8975 42.7219 20.6416C42.9592 20.4022 43.1955 20.1619 43.4306 19.9203C45.1278 18.2159 46.968 17.6029 49.3645 17.6159ZM25.3379 50.5914C23.8559 52.328 23.405 54.3642 23.5811 56.5946C23.9492 58.5803 24.9941 60.2504 26.6352 61.4091C28.3739 62.5877 30.2553 62.9847 32.3175 62.6127C34.2938 62.1511 36.0468 61.0761 37.1402 59.3376C38.1771 57.4197 38.4747 55.3657 37.9099 53.2376C37.2664 51.323 35.9911 49.7941 34.1926 48.8653C30.9901 47.4399 27.7704 48.0259 25.3379 50.5914ZM14.6727 49.6513C14.7553 50.4992 14.94 51.2888 15.1721 52.1077C15.2046 52.2298 15.2371 52.3519 15.2706 52.4776C15.3038 52.5954 15.337 52.7131 15.3712 52.8343C15.4005 52.9402 15.4299 53.046 15.4601 53.1551C15.6288 53.5397 15.7708 53.7271 16.1137 53.9745C16.4832 54.0202 16.7998 54.0359 17.1679 54.0257C17.269 54.0249 17.37 54.0242 17.4741 54.0234C17.7958 54.0205 18.1174 54.0139 18.4391 54.0072C18.6576 54.0046 18.8761 54.0022 19.0946 54.0001C19.6295 53.9943 20.1642 53.9853 20.6989 53.9745C20.8466 53.5348 20.9914 53.0949 21.1262 52.6511C21.1885 52.4536 21.2507 52.2561 21.313 52.0585C21.3417 51.9628 21.3703 51.867 21.3998 51.7684C21.604 51.131 21.8793 50.5804 22.2213 50.0042C22.3041 49.8641 22.387 49.724 22.4723 49.5796C22.5356 49.4736 22.5988 49.3675 22.664 49.2583C21.6995 49.2492 20.7349 49.2422 19.7703 49.2379C19.3224 49.2359 18.8745 49.2331 18.4266 49.2286C17.9115 49.2235 17.3965 49.2216 16.8813 49.2199C16.7207 49.2179 16.5601 49.2158 16.3946 49.2137C16.2451 49.2137 16.0956 49.2137 15.9417 49.2137C15.8102 49.2128 15.6787 49.2119 15.5432 49.211C15.1463 49.2652 14.9671 49.3865 14.6727 49.6513Z" fill="url(#paint0_linear_4_337)"/>
<path d="M6.72702 1.65725C6.91873 1.65509 7.11043 1.65154 7.30209 1.6465C8.47134 1.61602 9.4991 1.63055 10.4805 2.35815C11.3088 3.18821 11.5358 4.08844 11.5541 5.24488C11.5524 5.46444 11.5493 5.68398 11.5449 5.9035C11.5437 6.0169 11.5426 6.1303 11.5413 6.24713C11.5383 6.52289 11.5336 6.79863 11.5285 7.07436C11.8312 7.11759 12.1338 7.16083 12.4456 7.20537C12.4648 7.1135 12.4841 7.02163 12.5039 6.92698C12.7697 5.80265 13.1617 4.99216 14.1405 4.33961C15.1194 3.74522 16.1169 3.7605 17.2288 3.76441C17.3866 3.76416 17.5445 3.76391 17.7071 3.76365C18.0404 3.76348 18.3737 3.76396 18.707 3.76505C19.2129 3.76645 19.7189 3.76507 20.2248 3.76339C20.5499 3.76356 20.8749 3.7639 21.2 3.76441C21.3494 3.76388 21.4989 3.76335 21.6529 3.76281C24.2936 3.77797 26.7439 4.56132 28.6576 6.43571C30.5679 8.39159 31.3305 10.6738 31.3295 13.3747C31.3299 13.5337 31.3304 13.6927 31.3308 13.8565C31.3318 14.291 31.3323 14.7254 31.3324 15.1598C31.3324 15.4313 31.3327 15.7029 31.3331 15.9744C31.3343 16.9221 31.3348 17.8699 31.3347 18.8176C31.3346 19.7006 31.336 20.5836 31.3381 21.4667C31.3398 22.2256 31.3405 22.9845 31.3404 23.7434C31.3404 24.1963 31.3408 24.6493 31.3422 25.1022C31.3437 25.6068 31.3431 26.1115 31.3423 26.6161C31.343 26.7661 31.3437 26.9161 31.3445 27.0706C31.344 27.208 31.3434 27.3454 31.3428 27.4869C31.3429 27.6062 31.343 27.7254 31.3431 27.8483C31.3077 28.193 31.235 28.3998 31.0484 28.6904C30.5081 29.0635 30.11 29.1207 29.4799 29.0588C29.0383 28.8818 28.8505 28.6783 28.5593 28.2973C28.4611 27.8039 28.4716 27.3165 28.4771 26.8148C28.4757 26.59 28.4757 26.59 28.4742 26.3607C28.4718 25.865 28.4739 25.3695 28.4759 24.8738C28.4749 24.5286 28.4735 24.1835 28.4718 23.8384C28.4682 23.0217 28.4678 22.205 28.4686 21.3883C28.4701 19.8423 28.466 18.2963 28.4607 16.7503C28.4595 16.2438 28.4602 15.7374 28.4612 15.231C28.4607 14.918 28.4602 14.6049 28.4597 14.2919C28.4608 14.0826 28.4608 14.0826 28.462 13.869C28.4538 11.7889 27.9608 9.89774 26.4632 8.38442C25.348 7.43348 24.0277 6.79432 22.5501 6.79748C22.318 6.79749 22.318 6.79749 22.0812 6.79751C21.9149 6.79818 21.7485 6.79886 21.5771 6.79956C21.4063 6.79974 21.2355 6.79993 21.0595 6.80012C20.6063 6.80062 20.1532 6.8019 19.7001 6.80335C19.2373 6.8047 18.7745 6.80529 18.3117 6.80595C17.4044 6.80736 16.497 6.80959 15.5897 6.81235C15.4225 7.41508 15.4266 8.02187 15.4255 8.64388C15.4079 9.13543 15.3452 9.48113 15.0514 9.88383C14.5828 10.2979 14.3785 10.3489 13.7556 10.3495C13.4239 10.303 13.0979 10.2407 12.7695 10.1746C10.8909 9.80178 9.04156 9.77674 7.13165 9.78455C6.92521 9.78512 6.92521 9.78512 6.71461 9.7857C6.32122 9.78733 5.92788 9.79035 5.5345 9.79427C5.41416 9.79526 5.29381 9.79625 5.16982 9.79727C4.63866 9.7523 4.63866 9.7523 4.1922 9.95649C4.17852 10.2902 4.17343 10.6203 4.1738 10.954C4.17341 11.0598 4.17303 11.1655 4.17262 11.2745C4.17148 11.6316 4.17129 11.9887 4.17109 12.3458C4.17049 12.6008 4.16983 12.8557 4.16912 13.1107C4.1674 13.8055 4.16656 14.5004 4.16598 15.1953C4.16559 15.6293 4.16506 16.0634 4.16447 16.4974C4.16268 17.8552 4.16141 19.213 4.16091 20.5708C4.16032 22.1385 4.15802 23.7062 4.15422 25.2739C4.15139 26.485 4.15007 27.6962 4.1499 28.9073C4.14976 29.6309 4.14899 30.3544 4.14664 31.0779C4.14448 31.7592 4.1442 32.4405 4.14535 33.1218C4.14545 33.3715 4.14489 33.6211 4.14359 33.8707C4.14192 34.2125 4.1427 34.5542 4.14406 34.8961C4.143 34.994 4.14195 35.0919 4.14086 35.1928C4.14855 36.0222 4.30139 36.8566 4.83444 37.5123C4.96641 37.6159 4.96641 37.6159 5.10106 37.7216C5.1887 37.793 5.27635 37.8644 5.36665 37.938C5.84586 38.2701 6.19401 38.4172 6.78155 38.4224C6.90487 38.4242 7.02819 38.4259 7.15525 38.4277C7.35382 38.4288 7.35382 38.4288 7.5564 38.4298C7.76185 38.4327 7.76185 38.4327 7.97145 38.4356C8.40932 38.4417 8.84717 38.4462 9.28506 38.4503C9.86063 38.4557 10.4361 38.4627 11.0117 38.4708C11.2095 38.4718 11.2095 38.4718 11.4112 38.4729C12.8732 38.4936 12.8732 38.4936 13.4691 38.9661C13.8238 39.4328 13.7944 39.9193 13.7556 40.4809C13.5789 40.8994 13.4709 41.0834 13.0602 41.2826C12.7069 41.3982 12.4389 41.4318 12.0689 41.4339C11.9455 41.4352 11.8221 41.4364 11.695 41.4377C11.5629 41.4376 11.4308 41.4375 11.2947 41.4373C11.1568 41.4379 11.019 41.4385 10.877 41.439C10.5853 41.4398 10.2936 41.4399 10.0019 41.4393C9.56001 41.4389 9.11823 41.4419 8.67634 41.4453C8.3919 41.4456 8.10746 41.4457 7.82301 41.4455C7.69277 41.4467 7.56252 41.4479 7.42833 41.4492C5.60035 41.4374 4.15674 40.8944 2.78389 39.6867C1.76004 38.6035 1.2901 37.1653 1.29167 35.7114C1.29128 35.5993 1.29089 35.4872 1.29049 35.3716C1.28935 34.9952 1.28916 34.6188 1.28896 34.2423C1.28835 33.9727 1.2877 33.7031 1.28699 33.4334C1.28527 32.7005 1.28443 31.9675 1.28384 31.2345C1.28346 30.7766 1.28292 30.3187 1.28234 29.8609C1.28055 28.4285 1.27928 26.9962 1.27877 25.5638C1.27819 23.91 1.27589 22.2562 1.27209 20.6023C1.26926 19.3242 1.26794 18.046 1.26776 16.7679C1.26763 16.0044 1.26685 15.2409 1.26451 14.4774C1.26235 13.7592 1.26207 13.041 1.26322 12.3228C1.26332 12.0594 1.26275 11.7959 1.26146 11.5324C1.25979 11.1725 1.26056 10.8126 1.26193 10.4527C1.26087 10.3486 1.25982 10.2446 1.25873 10.1374C1.26803 9.0882 1.63736 8.3543 2.35812 7.59839C2.52991 7.5055 2.7042 7.41685 2.88214 7.33637C2.88295 7.19784 2.88295 7.19784 2.88377 7.05652C2.88813 6.63113 2.89739 6.20598 2.90671 5.78068C2.90747 5.63545 2.90823 5.49021 2.90901 5.34058C2.94599 3.94357 3.36109 2.97086 4.36927 2.00146C5.00846 1.50616 5.95519 1.66359 6.72702 1.65725ZM5.89528 4.45424C5.89528 5.27565 5.89528 6.09706 5.89528 6.94336C6.80315 6.94336 7.71102 6.94336 8.64641 6.94336C8.64911 6.53535 8.65181 6.12735 8.65459 5.70699C8.65579 5.57823 8.65698 5.44947 8.65821 5.31682C8.65854 5.21607 8.65886 5.11533 8.6592 5.01153C8.65989 4.90794 8.66057 4.80434 8.66128 4.69761C8.67326 4.45216 8.67326 4.45216 8.5154 4.32324C8.12387 4.31012 7.73603 4.30506 7.34453 4.30686C7.23485 4.30635 7.12517 4.30585 7.01216 4.30533C6.85472 4.30558 6.85472 4.30558 6.69411 4.30584C6.54923 4.30606 6.54923 4.30606 6.40143 4.30628C6.14507 4.30838 6.14507 4.30838 5.89528 4.45424Z" fill="url(#paint1_linear_4_337)"/>
<path d="M49.5198 23.4308C49.655 23.4299 49.7902 23.4289 49.9295 23.428C50.1518 23.4274 50.1518 23.4274 50.3787 23.4269C50.6129 23.4256 50.6129 23.4256 50.8519 23.4243C51.3698 23.4217 51.8876 23.4202 52.4055 23.4189C52.5839 23.4183 52.7622 23.4178 52.9406 23.4172C53.7785 23.4147 54.6165 23.4129 55.4544 23.4118C56.4213 23.4105 57.3883 23.4071 58.3552 23.4018C59.1029 23.3978 59.8505 23.3959 60.5982 23.3954C61.0447 23.3951 61.4911 23.394 61.9375 23.3907C62.4356 23.3875 62.9336 23.3876 63.4317 23.3885C63.6532 23.386 63.6532 23.386 63.8793 23.3834C64.879 23.3901 64.879 23.3901 65.395 23.6996C65.8521 24.2246 65.787 24.7175 65.7903 25.3838C65.7919 25.5622 65.7919 25.5622 65.7935 25.7441C65.7968 26.1387 65.799 26.5333 65.8008 26.9279C65.8015 27.0625 65.8022 27.1972 65.803 27.3359C65.8065 28.0486 65.809 28.7613 65.8109 29.4741C65.8131 30.2103 65.8189 30.9466 65.8256 31.6828C65.83 32.2488 65.8315 32.8148 65.8323 33.3808C65.8332 33.6522 65.8351 33.9236 65.8383 34.195C65.8424 34.5751 65.8424 34.955 65.8415 35.3352C65.8436 35.4471 65.8458 35.559 65.848 35.6743C65.8422 36.2253 65.8017 36.5749 65.4491 37.0115C64.9326 37.5069 64.668 37.4849 63.9617 37.4888C63.8695 37.4894 63.7773 37.4901 63.6823 37.4908C63.3717 37.4928 63.0612 37.494 62.7507 37.4951C62.5286 37.4963 62.3065 37.4976 62.0845 37.499C61.3534 37.5031 60.6223 37.5057 59.8912 37.5081C59.7668 37.5086 59.6424 37.509 59.5142 37.5095C58.34 37.5135 57.1658 37.517 55.9916 37.5192C54.4909 37.5221 52.9904 37.5276 51.4897 37.5367C50.4341 37.5429 49.3785 37.5461 48.3228 37.547C47.6927 37.5477 47.0627 37.5496 46.4327 37.5548C45.8389 37.5597 45.2452 37.5608 44.6514 37.559C44.4344 37.559 44.2175 37.5604 44.0006 37.5632C42.6867 37.5793 41.5898 37.4734 40.4809 36.6817C39.6439 35.8338 39.2662 35.0275 39.2527 33.8241C39.2833 32.2894 39.9285 31.4472 41.0049 30.3934C41.1617 30.2575 41.3191 30.1224 41.4769 29.9877C42.0904 29.4527 42.6581 28.8785 43.2269 28.2968C43.4503 28.0705 43.6737 27.8442 43.8973 27.618C44.2448 27.2656 44.5919 26.9128 44.938 26.5589C45.2753 26.2145 45.6142 25.8718 45.9534 25.5293C46.106 25.372 46.106 25.372 46.2616 25.2116C47.1678 24.3012 48.1834 23.4372 49.5198 23.4308ZM48.1654 27.4122C48.0843 27.4949 48.0032 27.5776 47.9196 27.6627C47.8272 27.7561 47.7348 27.8495 47.6396 27.9457C47.5469 28.0401 47.4542 28.1345 47.3587 28.2318C46.8359 28.7641 46.3156 29.2924 45.7498 29.7793C45.0864 30.3511 44.4558 30.9556 43.8307 31.5685C43.6926 31.7031 43.5536 31.8367 43.4137 31.9694C43.209 32.1638 43.0074 32.361 42.8062 32.5591C42.6867 32.6747 42.5671 32.7903 42.4439 32.9094C42.1129 33.3755 42.0924 33.6326 42.1839 34.1926C42.4954 34.525 42.6829 34.5828 43.139 34.6328C43.3956 34.6315 43.3956 34.6315 43.6574 34.6302C43.752 34.6303 43.8466 34.6303 43.9441 34.6304C44.2561 34.6301 44.5679 34.6271 44.8798 34.624C45.0964 34.6232 45.313 34.6227 45.5296 34.6223C46.0991 34.6208 46.6685 34.6169 47.2379 34.6126C47.9215 34.6078 48.6051 34.606 49.2887 34.6037C50.3266 34.5999 51.3645 34.5924 52.4024 34.5856C52.4024 31.8187 52.4024 29.0519 52.4024 26.2012C49.6697 25.9942 49.6697 25.9942 48.1654 27.4122ZM55.2845 26.2012C55.2845 28.9681 55.2845 31.7349 55.2845 34.5856C57.8352 34.5856 60.3859 34.5856 63.0139 34.5856C63.0139 31.8187 63.0139 29.0519 63.0139 26.2012C60.4632 26.2012 57.9125 26.2012 55.2845 26.2012Z" fill="url(#paint2_linear_4_337)"/>
<path d="M17.0308 18.3408C17.6938 18.8126 18.0883 19.3405 18.5128 20.0275C18.5748 20.1259 18.6367 20.2243 18.7006 20.3257C18.8272 20.5277 18.9532 20.73 19.0785 20.9328C19.2411 21.1958 19.406 21.4572 19.5716 21.7183C20.1343 22.6178 20.6266 23.5406 21.0838 24.4981C21.1333 24.6015 21.1828 24.705 21.2338 24.8115C21.9411 26.3291 22.1591 27.9222 21.6651 29.5419C21.1385 30.8998 20.0938 32.0694 18.7584 32.6778C17.5006 33.1887 15.8445 33.2429 14.5499 32.817C12.9558 32.1167 11.8581 31.0273 11.2174 29.4109C10.5583 27.3909 11.1481 25.6762 12.0567 23.8307C12.6908 22.5946 13.424 21.4233 14.1896 20.265C14.2664 20.1485 14.3433 20.0319 14.4225 19.9118C15.6932 18.0235 15.6932 18.0235 17.0308 18.3408ZM16.2448 22.271C16.0294 22.5532 15.8325 22.834 15.6389 23.1308C15.5521 23.2625 15.5521 23.2625 15.4636 23.3968C15.0633 24.0143 14.6928 24.6439 14.3452 25.2924C14.3025 25.3717 14.2599 25.4511 14.2159 25.5329C13.8026 26.3248 13.5457 27.0038 13.6246 27.9043C13.8827 28.6784 14.2372 29.3384 14.9403 29.7727C15.5756 30.0843 16.191 30.281 16.8998 30.1314C17.8246 29.8108 18.3844 29.4119 18.8649 28.5593C19.1492 27.7744 19.0521 26.9909 18.723 26.2428C18.6834 26.1589 18.6437 26.0749 18.6029 25.9883C18.5417 25.854 18.5417 25.854 18.4794 25.7169C18.0527 24.7986 17.5605 23.9198 17.0308 23.0571C16.9851 22.9823 16.9394 22.9075 16.8923 22.8305C16.7712 22.6391 16.6397 22.4544 16.5068 22.271C16.4203 22.271 16.3339 22.271 16.2448 22.271Z" fill="url(#paint3_linear_4_337)"/>
<path d="M33.7284 51.0279C34.893 51.8584 35.655 53.0887 35.8956 54.4986C36.0273 55.8458 35.7621 57.1764 34.954 58.2814C33.9787 59.4099 32.8612 60.1562 31.3565 60.3125C29.8552 60.3597 28.6755 60.0569 27.52 59.0792C26.4204 58.0337 25.8201 56.821 25.7427 55.2846C25.821 53.6819 26.4755 52.4563 27.6259 51.3872C29.3404 49.9486 31.8376 49.8676 33.7284 51.0279ZM29.1734 54.0482C28.705 54.6199 28.645 55.003 28.6535 55.738C28.7245 56.379 29.077 56.7299 29.5337 57.1514C30.1793 57.5924 30.634 57.701 31.4046 57.5905C32.064 57.4166 32.4816 57.0493 32.8743 56.5046C33.1196 55.7398 33.1584 55.0559 32.8006 54.3266C32.2403 53.6926 31.7576 53.2222 30.8765 53.1557C30.1029 53.2082 29.6743 53.4758 29.1734 54.0482Z" fill="url(#paint4_linear_4_337)"/>
<path d="M23.8247 9.54142C24.9458 10.1531 25.5419 10.9918 25.9392 12.1835C25.977 12.7888 25.9756 13.3949 25.9801 14.0012C25.9839 14.1689 25.9877 14.3366 25.9916 14.5094C25.9927 14.671 25.9938 14.8326 25.995 14.9991C25.9969 15.1469 25.9988 15.2946 26.0008 15.4469C25.9258 15.9395 25.7592 16.1533 25.4152 16.5067C24.9602 16.7342 24.4704 16.7166 23.9741 16.6377C23.6131 16.3519 23.393 16.1305 23.1881 15.7207C23.1727 15.5085 23.1646 15.2958 23.1604 15.0831C23.1567 14.9562 23.153 14.8294 23.1492 14.6988C23.1424 14.4313 23.1366 14.1638 23.1318 13.8963C23.1277 13.7692 23.1237 13.642 23.1195 13.511C23.1169 13.3947 23.1143 13.2783 23.1116 13.1585C23.0458 12.7728 22.9397 12.5907 22.664 12.3145C22.2844 12.2612 21.9468 12.2352 21.5669 12.2327C20.0931 12.2075 20.0931 12.2075 19.479 11.6431C19.1889 11.1489 19.1649 10.7783 19.2579 10.2185C19.4242 9.81566 19.535 9.62667 19.918 9.41757C21.0553 9.077 22.7148 9.12812 23.8247 9.54142Z" fill="url(#paint5_linear_4_337)"/>
<path d="M54.9407 40.8493C55.0903 40.8474 55.2399 40.8455 55.3941 40.8436C55.7941 40.8728 56.0065 40.9099 56.3326 41.1358C56.7397 41.8008 56.7555 42.2161 56.5859 42.9679C56.4229 43.3199 56.282 43.4406 55.9396 43.6249C55.5102 43.6818 55.5102 43.6818 55.0307 43.6823C54.8728 43.6848 54.7149 43.6873 54.5523 43.6899C54.0301 43.614 53.8169 43.4741 53.4505 43.1009C53.2924 42.6268 53.2772 42.2897 53.3195 41.7909C53.7797 40.9625 54.0194 40.8544 54.9407 40.8493Z" fill="url(#paint6_linear_4_337)"/>
<defs>
<linearGradient id="paint0_linear_4_337" x1="38.8361" y1="17.5985" x2="38.8361" y2="65.4261" gradientUnits="userSpaceOnUse">
<stop stop-color="#FEECE2"/>
<stop offset="1" stop-color="#E46925"/>
</linearGradient>
<linearGradient id="paint1_linear_4_337" x1="16.3016" y1="1.63806" x2="16.3016" y2="41.4492" gradientUnits="userSpaceOnUse">
<stop stop-color="#FEECE2"/>
<stop offset="1" stop-color="#E46925"/>
</linearGradient>
<linearGradient id="paint2_linear_4_337" x1="52.5503" y1="23.3834" x2="52.5503" y2="37.5647" gradientUnits="userSpaceOnUse">
<stop stop-color="#FEECE2"/>
<stop offset="1" stop-color="#E46925"/>
</linearGradient>
<linearGradient id="paint3_linear_4_337" x1="16.4343" y1="18.1831" x2="16.4343" y2="33.1025" gradientUnits="userSpaceOnUse">
<stop stop-color="#FEECE2"/>
<stop offset="1" stop-color="#E46925"/>
</linearGradient>
<linearGradient id="paint4_linear_4_337" x1="30.8352" y1="50.226" x2="30.8352" y2="60.3171" gradientUnits="userSpaceOnUse">
<stop stop-color="#FEECE2"/>
<stop offset="1" stop-color="#E46925"/>
</linearGradient>
<linearGradient id="paint5_linear_4_337" x1="22.6051" y1="9.19299" x2="22.6051" y2="16.6912" gradientUnits="userSpaceOnUse">
<stop stop-color="#FEECE2"/>
<stop offset="1" stop-color="#E46925"/>
</linearGradient>
<linearGradient id="paint6_linear_4_337" x1="54.9934" y1="40.8436" x2="54.9934" y2="43.6899" gradientUnits="userSpaceOnUse">
<stop stop-color="#FEECE2"/>
<stop offset="1" stop-color="#E46925"/>
</linearGradient>
</defs>
</svg>
